<?xml version="1.0" standalone="no"?><!-- Generator: Adobe Fireworks CS6, Export SVG Extension by Aaron Beall (http://fireworks.abeall.com) . Version: 0.6.1  --><!DOCTYPE svg PUBLIC "-//W3C//DTD SVG 1.1//EN" "http://www.w3.org/Graphics/SVG/1.1/DTD/svg11.dtd"><svg id="Untitled-Page%201" viewBox="0 0 22 24" style="background-color:#ffffff00" version="1.1"	xmlns="http://www.w3.org/2000/svg" xmlns:xlink="http://www.w3.org/1999/xlink" xml:space="preserve"	x="0px" y="0px" width="22px" height="24px">	<defs>		<filter id="filter1" x="-100%" y="-100%" width="300%" height="300%">			<!-- Drop Shadow -->			<feOffset result="out" in="SourceGraphic" dx="1.4142" dy="1.4142"/>			<feColorMatrix result="out" in="out" type="matrix" values="0 0 0 0 0  0 0 0 0 0  0 0 0 0 0  0 0 0 1 0"/>			<feGaussianBlur result="out" in="out" stdDeviation="1"/>			<feBlend in="SourceGraphic" in2="out" mode="normal" result="Drop_Shadow1"/>		</filter>		<linearGradient id="gradient1" x1="52.5%" y1="40.909%" x2="52.5%" y2="100.3883%">			<stop stop-color="#43c3ff" stop-opacity="1" offset="0%"/>			<stop stop-color="#0d6997" stop-opacity="1" offset="100%"/>		</linearGradient>	</defs>	<g id="Layer%201">		<path filter="url(#filter1)" d="M 15.7103 17.1041 C 15.7447 16.8709 15.7745 16.6277 15.8017 16.372 L 15.7283 13.3119 C 15.7651 13.3098 15.802 13.3086 15.8394 13.3086 C 16.8993 13.3086 17.7584 14.1584 17.7584 15.2068 C 17.7584 16.2551 16.8993 17.1049 15.8394 17.1049 L 15.7103 17.1041 ZM 0.6224 8.97 L 0.5187 15.903 C 0.5187 15.903 -0.0129 20.4378 4.5958 21.8303 C 4.5958 21.8303 6.9644 22.367 12.981 21.5316 C 13.7801 20.9306 14.3412 20.3737 14.7433 19.798 C 15.1807 19.8104 15.6958 19.8166 15.8394 19.8166 C 18.4134 19.8166 20.5 17.7527 20.5 15.2068 C 20.5 12.6608 18.4134 10.597 15.8394 10.597 C 15.7803 10.597 15.7214 10.598 15.6629 10.6003 L 15.6239 8.97 L 0.6224 8.97 ZM 9.4691 6.7851 C 9.4691 6.7851 7.8196 4.5966 10.5 3.9713 C 16.184 2.7617 10.6947 -0.0145 10.6874 0.0001 C 10.6872 0.0005 10.6932 0.0042 10.7062 0.0113 C 12.0259 0.7296 12.9066 1.2379 8.0505 3.1517 C 9.1639 2.2105 6.652 0.941 6.6478 0.9492 L 6.661 0.9572 C 7.6072 1.4726 8.2337 1.8348 4.6232 3.2396 C 2.7309 3.9759 5.7877 5.743 5.7877 5.743 C 5.7877 5.743 4.6232 4.1968 6.5155 3.755 C 6.8011 3.6942 7.0468 3.628 7.2567 3.5571 C 5.8857 4.7154 9.4691 6.7851 9.4691 6.7851 Z" fill="url(#gradient1)"/>	</g></svg>