<?xml version="1.0" standalone="no"?><!-- Generator: Adobe Fireworks CS6, Export SVG Extension by Aaron Beall (http://fireworks.abeall.com) . Version: 0.6.1  --><!DOCTYPE svg PUBLIC "-//W3C//DTD SVG 1.1//EN" "http://www.w3.org/Graphics/SVG/1.1/DTD/svg11.dtd"><svg id="Untitled-Page%201" viewBox="0 0 23 23" style="background-color:#ffffff00" version="1.1"	xmlns="http://www.w3.org/2000/svg" xmlns:xlink="http://www.w3.org/1999/xlink" xml:space="preserve"	x="0px" y="0px" width="23px" height="23px">	<defs>		<filter id="filter1" x="-100%" y="-100%" width="300%" height="300%">			<!-- Drop Shadow -->			<feOffset result="out" in="SourceGraphic" dx="1.4142" dy="1.4142"/>			<feColorMatrix result="out" in="out" type="matrix" values="0 0 0 0 0  0 0 0 0 0  0 0 0 0 0  0 0 0 1 0"/>			<feGaussianBlur result="out" in="out" stdDeviation="1"/>			<feBlend in="SourceGraphic" in2="out" mode="normal" result="Drop_Shadow1"/>		</filter>		<linearGradient id="gradient1" x1="50%" y1="0%" x2="50%" y2="100%">			<stop stop-color="#fa2300" stop-opacity="1" offset="0%"/>			<stop stop-color="#b90000" stop-opacity="1" offset="100%"/>		</linearGradient>	</defs>	<g id="Layer%201">		<path filter="url(#filter1)" d="M 10.5 0 C 4.7009 0 0 4.7009 0 10.5 C 0 16.2991 4.7009 21 10.5 21 C 16.2991 21 21 16.2991 21 10.5 C 21 4.7009 16.2991 0 10.5 0 ZM 13.3945 16.2029 C 12.5255 16.6448 11.5417 16.894 10.5 16.894 C 6.9686 16.894 4.106 14.0314 4.106 10.5 C 4.106 9.3881 4.3904 8.3423 4.8895 7.4315 L 13.3945 16.2029 ZM 10.5 4.106 C 14.0314 4.106 16.894 6.9686 16.894 10.5 C 16.894 11.5324 16.65 12.5078 16.2155 13.371 L 7.8123 4.6968 C 8.6295 4.3175 9.5397 4.106 10.5 4.106 Z" fill="url(#gradient1)"/>	</g></svg>