<?xml version="1.0" standalone="no"?><!-- Generator: Adobe Fireworks CS6, Export SVG Extension by Aaron Beall (http://fireworks.abeall.com) . Version: 0.6.1  --><!DOCTYPE svg PUBLIC "-//W3C//DTD SVG 1.1//EN" "http://www.w3.org/Graphics/SVG/1.1/DTD/svg11.dtd"><svg id="Untitled-Page%201" viewBox="0 0 28 26" style="background-color:#ffffff00" version="1.1"	xmlns="http://www.w3.org/2000/svg" xmlns:xlink="http://www.w3.org/1999/xlink" xml:space="preserve"	x="0px" y="0px" width="28px" height="26px">	<defs>		<linearGradient id="gradient1" x1="52.6316%" y1="-69.4444%" x2="52.6316%" y2="130.5556%">			<stop stop-color="#888888" stop-opacity="1" offset="0%"/>			<stop stop-color="#dddddd" stop-opacity="1" offset="100%"/>		</linearGradient>	</defs>	<g id="Layer%201">		<path d="M 10.9662 13.5 C 10.9662 11.651 12.5483 10.1522 14.5 10.1522 C 16.4517 10.1522 18.0338 11.651 18.0338 13.5 C 18.0338 15.349 16.4517 16.8478 14.5 16.8478 C 12.5483 16.8478 10.9662 15.349 10.9662 13.5 ZM 5 13.5 C 5 13.8687 5.0233 14.232 5.0688 14.5891 C 5.1068 14.5875 5.1451 14.587 5.1836 14.587 C 6.6029 14.587 7.7537 15.677 7.7537 17.0218 C 7.7537 17.7559 7.4108 18.414 6.8683 18.8604 C 7.377 19.5093 7.9756 20.0911 8.6467 20.5891 C 9.1163 20.0064 9.8572 19.6304 10.6908 19.6304 C 12.1102 19.6304 13.2609 20.7205 13.2609 22.0652 C 13.2609 22.186 13.2517 22.3048 13.2338 22.4209 C 13.6481 22.4731 14.0707 22.5 14.5 22.5 C 14.9604 22.5 15.4131 22.4691 15.8561 22.4091 C 15.8394 22.2968 15.8309 22.1819 15.8309 22.0652 C 15.8309 20.7205 16.9816 19.6304 18.401 19.6304 C 19.2141 19.6304 19.9393 19.9884 20.4102 20.547 C 21.043 20.07 21.6099 19.5182 22.0963 18.9056 C 21.5214 18.4591 21.1545 17.781 21.1545 17.0218 C 21.1545 15.677 22.3053 14.587 23.7247 14.587 C 23.7938 14.587 23.8623 14.5897 23.9302 14.5948 C 23.9761 14.236 24 13.8705 24 13.5 C 24 13.0998 23.9723 12.7055 23.9187 12.3191 C 23.8546 12.3237 23.79 12.3261 23.7247 12.3261 C 22.3053 12.3261 21.1545 11.236 21.1545 9.8913 C 21.1545 9.151 21.5032 8.4879 22.0536 8.0413 C 21.5403 7.4046 20.9392 6.8347 20.2675 6.3478 C 19.799 6.8164 19.136 7.1087 18.401 7.1087 C 16.9816 7.1087 15.8309 6.0186 15.8309 4.6739 C 15.8309 4.6451 15.8312 4.6164 15.8323 4.5878 C 15.3969 4.5299 14.9521 4.5 14.5 4.5 C 14.0793 4.5 13.6653 4.5259 13.259 4.5761 C 13.2604 4.6085 13.2609 4.6412 13.2609 4.6739 C 13.2609 6.0186 12.1102 7.1087 10.6908 7.1087 C 9.9357 7.1087 9.2568 6.8003 8.7866 6.3091 C 8.0951 6.8031 7.4768 7.3845 6.9504 8.0361 C 7.4452 8.4799 7.7537 9.108 7.7537 9.8044 C 7.7537 11.149 6.6029 12.2391 5.1836 12.2391 C 5.1532 12.2391 5.1228 12.2388 5.0927 12.2378 C 5.0316 12.6503 5 13.0716 5 13.5 Z" stroke="#222222" stroke-width="1" fill="url(#gradient1)"/>	</g></svg>