<?xml version="1.0" standalone="no"?><!-- Generator: Adobe Fireworks CS6, Export SVG Extension by Aaron Beall (http://fireworks.abeall.com) . Version: 0.6.1  --><!DOCTYPE svg PUBLIC "-//W3C//DTD SVG 1.1//EN" "http://www.w3.org/Graphics/SVG/1.1/DTD/svg11.dtd"><svg id="Untitled-Page%201" viewBox="0 0 27 27" style="background-color:#ffffff00" version="1.1"	xmlns="http://www.w3.org/2000/svg" xmlns:xlink="http://www.w3.org/1999/xlink" xml:space="preserve"	x="0px" y="0px" width="27px" height="27px">	<defs>		<linearGradient id="gradient1" x1="50%" y1="0%" x2="50%" y2="100%">			<stop stop-color="#a1a1a1" stop-opacity="1" offset="0%"/>			<stop stop-color="#bcbcbe" stop-opacity="1" offset="22.2222%"/>			<stop stop-color="#bcbcbe" stop-opacity="1" offset="100%"/>		</linearGradient>	</defs>	<g id="Layer%201">		<rect x="0" y="0" width="27" height="27" fill="url(#gradient1)"/>		<path d="M 7 10 L 20 10 L 20 20 L 7 20 L 7 10 ZM 17 6 L 18 6 L 18 8 L 17 8 L 17 6 ZM 9 8 L 9 6 L 10 6 L 10 8 L 9 8 ZM 8 5 L 8 6 L 8 7 L 6 7 L 6 8 L 6 10 L 6 21 L 7 21 L 20 21 L 21 21 L 21 20 L 21 10 L 21 8 L 21 7 L 19 7 L 19 6 L 19 5 L 16 5 L 16 6 L 16 7 L 11 7 L 11 6 L 11 5 L 10 5 L 9 5 L 8 5 ZM 11 11 L 11 13 L 13 13 L 13 11 L 11 11 ZM 14 11 L 14 13 L 16 13 L 16 11 L 14 11 ZM 17 11 L 17 13 L 19 13 L 19 11 L 17 11 ZM 14 17 L 14 19 L 16 19 L 16 17 L 14 17 ZM 11 17 L 11 19 L 13 19 L 13 17 L 11 17 ZM 8 17 L 8 19 L 10 19 L 10 17 L 8 17 ZM 17 14 L 17 16 L 19 16 L 19 14 L 17 14 ZM 14 14 L 14 16 L 16 16 L 16 14 L 14 14 ZM 11 14 L 11 16 L 13 16 L 13 14 L 11 14 ZM 8 14 L 8 16 L 10 16 L 10 14 L 8 14 Z" fill="#2a2a2a"/>	</g></svg>