<?xml version="1.0" standalone="no"?><!-- Generator: Adobe Fireworks CS6, Export SVG Extension by Aaron Beall (http://fireworks.abeall.com) . Version: 0.6.1  --><!DOCTYPE svg PUBLIC "-//W3C//DTD SVG 1.1//EN" "http://www.w3.org/Graphics/SVG/1.1/DTD/svg11.dtd"><svg id="Untitled-Page%201" viewBox="0 0 23 21" style="background-color:#ffffff00" version="1.1"	xmlns="http://www.w3.org/2000/svg" xmlns:xlink="http://www.w3.org/1999/xlink" xml:space="preserve"	x="0px" y="0px" width="23px" height="21px">	<defs>		<filter id="filter1" x="-100%" y="-100%" width="300%" height="300%">			<!-- Drop Shadow -->			<feOffset result="out" in="SourceGraphic" dx="1.4142" dy="1.4142"/>			<feColorMatrix result="out" in="out" type="matrix" values="0 0 0 0 0  0 0 0 0 0  0 0 0 0 0  0 0 0 1 0"/>			<feGaussianBlur result="out" in="out" stdDeviation="1"/>			<feBlend in="SourceGraphic" in2="out" mode="normal" result="Drop_Shadow1"/>		</filter>		<linearGradient id="gradient1" x1="57.1429%" y1="0%" x2="57.1429%" y2="100.3813%">			<stop stop-color="#d3281d" stop-opacity="1" offset="0%"/>			<stop stop-color="#d45c52" stop-opacity="1" offset="100%"/>		</linearGradient>	</defs>	<g id="Layer%201">		<g filter="url(#filter1)">			<rect x="1" y="11" width="19" height="7" fill="#ffffff"/>			<path d="M 14.3026 15 L 19 15 L 19 17 L 14.3026 17 L 14.3026 15 ZM 8.0395 15 L 12.7368 15 L 12.7368 17 L 8.0395 17 L 8.0395 15 ZM 2 15 L 6.6974 15 L 6.6974 17 L 2 17 L 2 15 ZM 14.3026 12 L 19 12 L 19 14 L 14.3026 14 L 14.3026 12 ZM 8.0395 12 L 12.7368 12 L 12.7368 14 L 8.0395 14 L 8.0395 12 ZM 2 12 L 6.6974 12 L 6.6974 14 L 2 14 L 2 12 ZM 0 19 L 21 19 L 21 5 L 16 10 L 16 5 L 11 10 L 11 5 L 5 10 L 5 5 L 0 10 L 0 19 ZM 18 0 L 18 5 L 21 2 L 21 0 L 18 0 Z" fill="url(#gradient1)"/>		</g>	</g></svg>