<?xml version="1.0" standalone="no"?><!-- Generator: Adobe Fireworks CS6, Export SVG Extension by Aaron Beall (http://fireworks.abeall.com) . Version: 0.6.1  --><!DOCTYPE svg PUBLIC "-//W3C//DTD SVG 1.1//EN" "http://www.w3.org/Graphics/SVG/1.1/DTD/svg11.dtd"><svg id="Untitled-Page%201" viewBox="0 0 15 15" style="background-color:#ffffff00" version="1.1"	xmlns="http://www.w3.org/2000/svg" xmlns:xlink="http://www.w3.org/1999/xlink" xml:space="preserve"	x="0px" y="0px" width="15px" height="15px">	<defs>		<linearGradient id="gradient1" x1="52.5781%" y1="-2.941%" x2="52.5781%" y2="100%">			<stop stop-color="#3c7249" stop-opacity="1" offset="0%"/>			<stop stop-color="#153216" stop-opacity="1" offset="100%"/>		</linearGradient>	</defs>	<g id="Layer%201">		<path d="M 0.9368 0.0053 C 0.4194 0.0053 0 0.4249 0 0.9424 L 0 14.0628 C 0 14.5804 0.4194 15 0.9368 15 L 10.3043 15 C 10.8217 15 11.241 14.5804 11.241 14.0628 L 11.241 9.1927 C 10.2821 10.2483 9.1122 11.5307 9.0553 11.5637 C 8.958 11.62 8.3025 12.0059 8.3025 12.0059 C 8.3025 12.0059 5.4546 12.7061 3.5962 12.7544 C 2.8962 12.6578 2.062 12.2534 2.1239 11.0883 C 2.1586 9.0661 2.8102 6.5655 2.8102 6.5655 C 2.9686 6.0659 3.4347 5.6283 3.4347 5.6283 L 8.1184 1.2549 L 6.8695 0.0053 C 4.7548 0.0536 0.9368 0.0053 0.9368 0.0053 ZM 4.8921 9.1858 L 5.4512 7.9096 L 7.0134 9.494 L 5.5729 9.9744 L 4.8921 9.1858 ZM 10.9132 2.7317 L 11.9733 1.624 L 13.4574 2.9674 L 12.3501 4.0515 L 10.9132 2.7317 ZM 3.7168 11.3539 C 4.0487 11.5788 7.666 10.5103 8.0853 10.1949 C 8.9935 9.4962 14.8431 3.7479 14.8431 3.7479 C 14.8431 3.7479 15.2535 2.9753 14.7467 2.3474 C 13.3469 1.0919 12.1401 0.1743 12.1401 0.1743 C 11.8745 -0.0672 11.4401 -0.0913 10.9288 0.3177 C 9.606 1.8163 4.6837 6.8778 4.6837 6.8778 C 4.272 7.5388 3.4211 11.12 3.7168 11.3539 Z" fill="url(#gradient1)"/>	</g></svg>