<?xml version="1.0" standalone="no"?><!-- Generator: Adobe Fireworks CS6, Export SVG Extension by Aaron Beall (http://fireworks.abeall.com) . Version: 0.6.1  --><!DOCTYPE svg PUBLIC "-//W3C//DTD SVG 1.1//EN" "http://www.w3.org/Graphics/SVG/1.1/DTD/svg11.dtd"><svg id="Untitled-Page%201" viewBox="0 0 14 17" style="background-color:#ffffff00" version="1.1"	xmlns="http://www.w3.org/2000/svg" xmlns:xlink="http://www.w3.org/1999/xlink" xml:space="preserve"	x="0px" y="0px" width="14px" height="17px">	<path d="M 4 10.75 L 6.3131 10.75 L 7.6077 10.75 L 7.6077 13 L 12 8.5 L 7.6077 4 L 7.6077 6.25 L 4 6.25 L 4 10.75 ZM 2.1538 0 C 0.9642 0 0 0.9514 0 2.125 L 0 14.875 C 0 16.0486 0.9642 17 2.1538 17 L 11.8461 17 C 13.0356 17 13.9999 16.0486 13.9999 14.875 L 14 11.1507 L 12.0229 13.26 C 11.8564 14.2703 10.9684 15.0415 9.8972 15.0415 L 4.0232 15.0415 C 2.8336 15.0415 1.8693 14.0901 1.8693 12.9165 L 1.8693 4.0835 C 1.8693 2.9099 2.8336 1.9585 4.0232 1.9585 L 9.8972 1.9585 C 10.9684 1.9585 11.8564 2.7297 12.0229 3.74 L 14 5.8493 L 13.9999 2.125 C 13.9999 0.9514 13.0356 0 11.8461 0 L 2.1538 0 Z" fill="#ffffff"/></svg>