<?xml version="1.0" standalone="no"?><!-- Generator: Adobe Fireworks CS6, Export SVG Extension by Aaron Beall (http://fireworks.abeall.com) . Version: 0.6.1  --><!DOCTYPE svg PUBLIC "-//W3C//DTD SVG 1.1//EN" "http://www.w3.org/Graphics/SVG/1.1/DTD/svg11.dtd"><svg id="Untitled-Page%201" viewBox="0 0 23 21" style="background-color:#ffffff00" version="1.1"	xmlns="http://www.w3.org/2000/svg" xmlns:xlink="http://www.w3.org/1999/xlink" xml:space="preserve"	x="0px" y="0px" width="23px" height="21px">	<g id="Layer%201">		<g>			<path d="M 5.5651 14.7239 L 5.3542 15.4648 C 4.8304 15.3111 4.2999 15.0315 3.8986 14.654 L 4.3883 14.0668 C 4.7556 14.3534 5.1162 14.584 5.5651 14.7239 ZM 3.9258 13.5635 L 3.3204 14.0248 C 2.9872 13.5635 2.7218 12.9833 2.6946 12.4031 L 3.4429 12.3401 L 3.4497 12.3542 C 3.4973 12.8015 3.6674 13.207 3.9258 13.5635 ZM 3.511 11.7181 L 2.7898 11.4874 C 2.9667 10.9282 3.2864 10.5087 3.5994 10.0264 L 4.2047 10.4948 C 3.9189 10.8303 3.6401 11.2916 3.511 11.7181 ZM 4.6604 9.8656 L 4.0482 9.4112 C 4.3068 9.0407 4.5448 8.6633 4.6128 8.2089 L 5.3679 8.2858 C 5.3474 8.838 4.9666 9.4252 4.6604 9.8656 ZM 5.259 7.3701 L 4.5381 7.5938 L 4.5244 7.5378 C 4.4633 7.2932 4.1095 6.678 3.817 6.657 L 4.1367 5.958 C 4.7013 6.3285 5.0549 6.678 5.259 7.3701 ZM 3.2728 5.7343 L 3.2252 6.5033 C 3.0278 6.4893 2.8103 6.5033 2.6199 6.5522 C 2.3885 6.6221 2.1709 6.699 1.9464 6.8038 L 1.6267 6.1048 C 1.8853 5.979 2.1846 5.8392 2.4701 5.7902 C 2.7355 5.7413 2.9939 5.7134 3.2728 5.7343 ZM 0 3.4363 L 0 7.1152 C 0.3101 6.9055 0.611 6.6728 0.9329 6.4823 L 1.307 7.1534 C 0.8921 7.405 0.484 7.6707 0.0895 7.9642 L 0.069 7.9782 L 0 7.8807 L 0 21 L 7.0896 17.9455 L 7.0896 15.5152 C 6.9135 15.5635 6.7336 15.596 6.5514 15.6047 L 6.531 15.6117 L 6.5106 15.6117 L 6.4834 15.6117 L 6.463 15.6117 L 6.4426 15.6117 L 6.4153 15.6117 L 6.395 15.6117 L 6.3746 15.6117 L 6.3541 15.6117 L 6.3269 15.6117 L 6.3065 15.6117 L 6.2861 15.6117 L 6.2657 15.6117 L 6.2385 15.6117 L 6.218 15.6117 L 6.1978 15.6117 L 6.1841 15.6117 L 6.225 14.8357 L 6.2454 14.8357 L 6.2657 14.8357 L 6.2793 14.8357 L 6.2998 14.8357 L 6.3134 14.8357 L 6.3339 14.8357 L 6.3541 14.8357 L 6.3678 14.8357 L 6.3882 14.8357 L 6.4086 14.8357 L 6.4221 14.8357 L 6.4426 14.8357 L 6.4562 14.8357 L 6.4766 14.8357 L 6.4901 14.8357 L 6.5106 14.8357 C 6.708 14.8158 6.901 14.7658 7.0896 14.7 L 7.0896 0 L 0 3.4363 Z" fill="#d9a300"/>			<path d="M 19.9854 8.7052 L 20.6453 8.3207 L 20.652 8.3347 L 20.6656 8.3627 L 20.686 8.3906 L 20.6996 8.4186 L 20.7133 8.4465 L 20.7268 8.4745 L 20.7405 8.5025 L 20.7609 8.5374 L 20.7744 8.5654 L 20.788 8.5934 L 20.8016 8.6213 L 20.822 8.6493 L 20.8356 8.6772 L 20.8492 8.7052 L 20.8629 8.7332 L 20.8765 8.7611 L 20.8969 8.7891 L 20.9105 8.824 L 20.9241 8.852 L 20.9377 8.8799 L 20.958 8.9079 L 20.9717 8.9429 L 20.9854 8.9708 L 20.9989 8.9988 L 21.0193 9.0268 L 21.0328 9.0617 L 21.0465 9.0897 L 21.0601 9.1176 L 21.0737 9.1456 L 21.0873 9.1805 L 21.1078 9.2085 L 21.1213 9.2365 L 21.135 9.2714 L 21.1486 9.2994 L 21.1689 9.3274 L 21.1826 9.3623 L 21.1962 9.3903 L 21.2097 9.4183 L 21.2234 9.4532 L 21.2438 9.4811 L 21.2573 9.5161 L 21.271 9.544 L 21.2845 9.572 L 21.2982 9.607 L 21.3119 9.6349 L 21.3322 9.6629 L 21.3458 9.6978 L 21.3525 9.7258 L 20.6792 10.0613 L 20.6656 10.0334 L 20.652 10.0054 L 20.6384 9.9774 L 20.6248 9.9425 L 20.6112 9.9146 L 20.5907 9.8866 L 20.5773 9.8586 L 20.5636 9.8237 L 20.5499 9.7957 L 20.5364 9.7677 L 20.5227 9.7398 L 20.5092 9.7119 L 20.4955 9.6768 L 20.4751 9.6489 L 20.4615 9.6209 L 20.448 9.593 L 20.4343 9.558 L 20.4208 9.5301 L 20.4071 9.5021 L 20.3934 9.4741 L 20.3732 9.4462 L 20.3595 9.4112 L 20.3459 9.3833 L 20.3323 9.3553 L 20.3187 9.3274 L 20.3052 9.2994 L 20.2915 9.2714 L 20.2711 9.2435 L 20.2574 9.2155 L 20.2439 9.1875 L 20.2302 9.1596 L 20.2167 9.1246 L 20.2031 9.0967 L 20.1827 9.0687 L 20.1691 9.0407 L 20.1554 9.0128 L 20.142 8.9918 L 20.1283 8.9568 L 20.1146 8.9289 L 20.0942 8.9009 L 20.0807 8.8799 L 20.067 8.852 L 20.0535 8.824 L 20.0398 8.7961 L 20.0261 8.7681 L 20.0127 8.7402 L 19.9922 8.7192 L 19.9854 8.7052 ZM 20.9921 10.7534 L 21.6791 10.4388 C 21.89 10.9211 22.0872 11.4035 22.2642 11.9068 L 21.5499 12.1654 C 21.3866 11.6831 21.1962 11.2148 20.9921 10.7534 ZM 21.7676 12.8714 L 22.4954 12.6827 L 22.5022 12.7037 L 22.509 12.7246 L 22.5157 12.7526 L 22.5157 12.7736 L 22.5226 12.7946 L 22.5294 12.8225 L 22.5363 12.8435 L 22.543 12.8644 L 22.543 12.8854 L 22.5498 12.9134 L 22.5566 12.9344 L 22.5566 12.9553 L 22.5634 12.9763 L 22.5702 13.0043 L 22.5702 13.0252 L 22.577 13.0462 L 22.577 13.0672 L 22.5837 13.0881 L 22.5837 13.1091 L 22.5906 13.1301 L 22.5906 13.1511 L 22.5974 13.172 L 22.5974 13.193 L 22.6042 13.214 L 22.6042 13.235 L 22.6042 13.2559 L 22.6042 13.2769 L 22.611 13.2979 L 22.611 13.3188 L 22.611 13.3398 L 22.611 13.3538 L 22.611 13.3748 L 22.6178 13.3957 C 22.6519 13.7243 22.5837 14.0948 22.5157 14.4093 L 21.7811 14.2136 C 21.8628 13.948 21.8424 13.6963 21.8628 13.4237 L 21.8628 13.4097 L 21.8628 13.4027 L 21.856 13.3887 L 21.856 13.3748 L 21.856 13.3608 L 21.856 13.3468 L 21.856 13.3398 L 21.856 13.3188 L 21.8491 13.3048 L 21.8491 13.2908 L 21.8491 13.2769 L 21.8424 13.2629 L 21.8424 13.2489 L 21.8424 13.2279 L 21.8356 13.214 L 21.8356 13.193 L 21.8287 13.179 L 21.8287 13.165 L 21.8287 13.1441 L 21.8219 13.1301 L 21.8219 13.1091 L 21.8152 13.0881 L 21.8152 13.0742 L 21.8083 13.0532 L 21.8015 13.0322 L 21.8015 13.0112 L 21.7947 12.9903 L 21.788 12.9763 L 21.788 12.9553 L 21.7811 12.9344 L 21.7744 12.9134 L 21.7676 12.8924 L 21.7676 12.8714 ZM 21.5295 14.8078 L 22.1553 15.2342 C 21.8287 15.7515 21.3799 16.073 20.8561 16.3526 L 20.5364 15.6466 C 20.9241 15.4788 21.2982 15.1713 21.5295 14.8078 ZM 19.8834 15.8843 L 20.0807 16.6322 L 20.0739 16.6393 L 20.0466 16.6462 L 20.0261 16.6532 L 19.999 16.6602 L 19.9718 16.6672 L 19.9514 16.6672 L 19.9242 16.6742 L 19.897 16.6812 L 19.8766 16.6882 L 19.8494 16.6951 L 19.8221 16.7021 L 19.7949 16.7091 L 19.7677 16.7091 L 19.7473 16.7161 L 19.7201 16.7231 L 19.6929 16.7301 L 19.6656 16.7371 L 19.6385 16.7371 L 19.6113 16.7441 L 19.5841 16.7511 L 19.5569 16.7581 L 19.5297 16.7581 L 19.5024 16.765 L 19.4752 16.772 L 19.448 16.772 L 19.4208 16.7791 L 19.3868 16.786 L 19.3528 16.786 L 19.3187 16.793 L 19.2916 16.793 L 19.2576 16.8 L 19.2235 16.8 L 19.1896 16.8 L 19.1555 16.8 L 19.1216 16.8 L 19.0942 16.8 L 19.0603 16.8 L 19.0262 16.8 L 18.9923 16.8 L 18.9651 16.8 L 18.931 16.793 L 18.897 16.793 L 18.863 16.786 L 18.829 16.786 L 18.795 16.786 L 18.7678 16.7791 L 18.7338 16.772 L 18.6997 16.772 L 18.6658 16.765 L 18.6317 16.7581 L 18.5978 16.7511 L 18.5637 16.7441 L 18.5365 16.7371 L 18.5026 16.7301 L 18.4685 16.7231 L 18.4344 16.7161 L 18.4005 16.7091 L 18.5841 15.9542 L 18.6046 15.9612 L 18.6317 15.9682 L 18.6589 15.9751 L 18.6863 15.9821 L 18.7134 15.9821 L 18.7338 15.9891 L 18.761 15.9961 L 18.7882 15.9961 L 18.8086 16.0031 L 18.8358 16.0031 L 18.863 16.0101 L 18.8834 16.0101 L 18.9106 16.0171 L 18.931 16.0171 L 18.9583 16.0171 L 18.9786 16.024 L 19.006 16.024 L 19.0262 16.024 L 19.0468 16.024 L 19.0739 16.024 L 19.0942 16.024 L 19.1216 16.024 L 19.142 16.024 L 19.1624 16.024 L 19.1827 16.024 L 19.2031 16.024 L 19.2235 16.024 L 19.244 16.0171 L 19.2711 16.0171 L 19.2916 16.0171 L 19.312 16.0101 L 19.3323 16.0101 L 19.3528 16.0031 L 19.3801 16.0031 L 19.4004 15.9961 L 19.4276 15.9891 L 19.448 15.9891 L 19.4752 15.9821 L 19.4956 15.9751 L 19.5228 15.9751 L 19.5432 15.9682 L 19.5704 15.9612 L 19.5908 15.9612 L 19.6113 15.9542 L 19.6385 15.9472 L 19.6588 15.9402 L 19.6793 15.9402 L 19.7065 15.9332 L 19.7269 15.9262 L 19.7473 15.9192 L 19.7745 15.9192 L 19.7949 15.9122 L 19.8154 15.9052 L 19.8357 15.8983 L 19.8562 15.8913 L 19.8766 15.8913 L 19.8834 15.8843 ZM 17.9312 15.7235 L 17.6318 16.4365 L 17.6251 16.4365 L 17.5911 16.4155 L 17.557 16.4016 L 17.5231 16.3876 L 17.489 16.3736 L 17.4551 16.3526 L 17.421 16.3386 L 17.3871 16.3246 L 17.353 16.3037 L 17.319 16.2897 L 17.2849 16.2688 L 17.251 16.2547 L 17.2169 16.2408 L 17.1829 16.2198 L 17.1489 16.1988 L 17.115 16.1848 L 17.0808 16.1639 L 17.0469 16.1429 L 17.0129 16.1289 L 16.9789 16.108 L 16.938 16.087 L 16.9041 16.073 L 16.87 16.052 L 16.8359 16.0311 L 16.802 16.0101 L 16.7679 15.9891 L 16.734 15.9682 L 16.7 15.9542 L 16.666 15.9332 L 16.632 15.9122 L 16.5912 15.8913 L 16.5571 15.8703 L 16.5232 15.8493 L 16.4891 15.8284 L 16.4552 15.8074 L 16.4211 15.7864 L 16.3871 15.7655 L 16.3463 15.7444 L 16.3123 15.7165 L 16.2782 15.6955 L 16.2511 15.6815 L 16.6455 15.0175 L 16.6727 15.0384 L 16.7068 15.0594 L 16.7408 15.0734 L 16.7679 15.0944 L 16.8087 15.1153 L 16.8359 15.1363 L 16.87 15.1573 L 16.9041 15.1783 L 16.938 15.1992 L 16.972 15.2202 L 17.006 15.2411 L 17.04 15.2551 L 17.0673 15.2761 L 17.1013 15.2971 L 17.1353 15.3181 L 17.1693 15.332 L 17.2032 15.353 L 17.2373 15.374 L 17.2645 15.3879 L 17.2986 15.4089 L 17.3325 15.4229 L 17.3599 15.4439 L 17.3938 15.4579 L 17.4279 15.4788 L 17.4618 15.4928 L 17.489 15.5138 L 17.5231 15.5278 L 17.5503 15.5417 L 17.5842 15.5627 L 17.6183 15.5767 L 17.6454 15.5907 L 17.6796 15.6047 L 17.7067 15.6187 L 17.7407 15.6396 L 17.7747 15.6536 L 17.8019 15.6675 L 17.8291 15.6815 L 17.8632 15.6955 L 17.8971 15.7095 L 17.9244 15.7235 L 17.9312 15.7235 ZM 20.2319 7.6426 L 20.2444 7.6249 L 20.2507 7.6357 L 20.2574 7.6427 L 19.6113 8.0481 L 19.5977 8.0272 L 19.5841 7.9992 L 19.5704 7.9782 L 19.5569 7.9572 L 19.5432 7.9363 L 19.5297 7.9153 L 19.5161 7.8943 L 19.5024 7.8734 L 19.4889 7.8524 L 19.4821 7.8314 L 19.4684 7.8105 L 19.4548 7.7895 L 19.4413 7.7685 L 19.4276 7.7475 L 19.4141 7.7265 L 19.4004 7.7056 L 19.3868 7.6846 L 19.3732 7.6707 L 19.3665 7.6497 L 19.3528 7.6287 L 19.3392 7.6147 L 19.3256 7.5938 L 19.312 7.5798 L 19.3052 7.5588 L 19.2916 7.5448 L 19.278 7.5239 L 19.2644 7.5098 L 19.2576 7.4889 L 19.244 7.4749 L 19.2303 7.4609 L 19.2168 7.4399 L 19.21 7.426 L 19.1963 7.412 L 19.1827 7.398 L 19.176 7.384 L 19.1624 7.3631 L 19.1555 7.3491 L 19.142 7.3351 L 19.1283 7.3211 L 19.1216 7.3071 L 19.1079 7.2932 L 19.1011 7.2862 L 19.0942 7.2722 L 19.0808 7.2582 L 19.0671 7.2443 L 19.0603 7.2372 L 19.0536 7.2233 L 19.4683 6.8575 L 20.2319 7.6426 ZM 20.2444 7.6249 L 20.2319 7.6426 L 19.4683 6.8575 L 19.6249 6.7199 L 19.6385 6.7339 L 19.6521 6.7479 L 19.6588 6.7619 L 19.6725 6.7759 L 19.6862 6.7968 L 19.6997 6.8108 L 19.7134 6.8248 L 19.7269 6.8458 L 19.7338 6.8597 L 19.7473 6.8807 L 19.7609 6.8947 L 19.7745 6.9087 L 19.7881 6.9296 L 19.8018 6.9436 L 19.8154 6.9646 L 19.829 6.9856 L 19.8425 6.9996 L 19.8562 7.0205 L 19.8629 7.0415 L 19.8834 7.0555 L 19.8901 7.0765 L 19.9038 7.0974 L 19.9174 7.1114 L 19.931 7.1324 L 19.9446 7.1534 L 19.9581 7.1743 L 19.9718 7.1953 L 19.9854 7.2162 L 19.999 7.2372 L 20.0127 7.2582 L 20.0261 7.2792 L 20.0398 7.3002 L 20.0535 7.3211 L 20.067 7.3421 L 20.0807 7.3631 L 20.0942 7.384 L 20.1078 7.405 L 20.1283 7.433 L 20.142 7.4539 L 20.1554 7.4749 L 20.1691 7.4958 L 20.1827 7.5239 L 20.1962 7.5448 L 20.2098 7.5658 L 20.2234 7.5938 L 20.2371 7.6147 L 20.2444 7.6249 ZM 18.281 5.6647 L 17.5249 4.6632 L 18.3118 3.4769 L 19.2565 4.4379 C 19.5492 4.1875 20.1832 3.4363 20.1832 3.4363 L 21.0856 4.3627 L 20.313 5.5314 L 21.1343 6.3657 L 20.2444 7.6249 L 20.2371 7.6147 L 20.2234 7.5938 L 20.2098 7.5658 L 20.1962 7.5448 L 20.1827 7.5239 L 20.1691 7.4958 L 20.1554 7.4749 L 20.142 7.4539 L 20.1283 7.433 L 20.1078 7.405 L 20.0942 7.384 L 20.0807 7.3631 L 20.067 7.3421 L 20.0535 7.3211 L 20.0398 7.3002 L 20.0261 7.2792 L 20.0127 7.2582 L 19.999 7.2372 L 19.9854 7.2162 L 19.9718 7.1953 L 19.9581 7.1743 L 19.9446 7.1534 L 19.931 7.1324 L 19.9174 7.1114 L 19.9038 7.0974 L 19.8901 7.0765 L 19.8834 7.0555 L 19.8629 7.0415 L 19.8562 7.0205 L 19.8425 6.9996 L 19.829 6.9856 L 19.8154 6.9646 L 19.8018 6.9436 L 19.7881 6.9296 L 19.7745 6.9087 L 19.7609 6.8947 L 19.7473 6.8807 L 19.7338 6.8597 L 19.7269 6.8458 L 19.7134 6.8248 L 19.6997 6.8108 L 19.6862 6.7968 L 19.6725 6.7759 L 19.6588 6.7619 L 19.6521 6.7479 L 19.6385 6.7339 L 19.6249 6.7199 L 19.4683 6.8575 L 19.2809 6.6662 L 18.3297 8.0182 L 17.403 7.1168 L 18.281 5.6647 ZM 15.9104 3.4363 L 15.9104 14.5377 L 15.9177 14.5421 L 15.9518 14.5631 L 15.9858 14.5911 L 16.0129 14.605 L 15.9104 14.7649 L 15.9104 20.6182 L 23 17.9455 L 23 0 L 15.9104 3.4363 Z" fill="#d9a300"/>			<path d="M 13.0201 12.2213 L 12.7957 12.9623 L 12.7821 12.9623 L 12.7616 12.9483 L 12.7345 12.9413 L 12.7073 12.9344 L 12.6801 12.9274 L 12.6528 12.9204 L 12.6256 12.9134 L 12.5984 12.9064 L 12.578 12.8994 L 12.5508 12.8924 L 12.5236 12.8854 L 12.5032 12.8854 L 12.4761 12.8784 L 12.4487 12.8714 L 12.4283 12.8714 L 12.4011 12.8644 L 12.3807 12.8644 L 12.3535 12.8575 L 12.3331 12.8575 L 12.3127 12.8505 L 12.2855 12.8505 L 12.2651 12.8505 L 12.2379 12.8435 L 12.2175 12.8435 L 12.197 12.8435 L 12.1768 12.8435 L 12.1563 12.8365 L 12.129 12.8435 L 12.1086 12.8435 L 12.0814 12.8435 L 12.061 12.8435 L 12.0338 12.8435 L 12.0134 12.8435 L 11.9862 12.8435 L 11.9658 12.8435 L 11.9386 12.8435 L 11.9182 12.8435 L 11.891 12.8505 L 11.8706 12.8505 L 11.8434 12.8505 L 11.823 12.8505 L 11.7957 12.8575 L 11.7686 12.8575 L 11.7482 12.8644 L 11.7209 12.8644 L 11.7006 12.8714 L 11.6733 12.8714 L 11.653 12.8784 L 11.6257 12.8784 L 11.5985 12.8854 L 11.5781 12.8854 L 11.5509 12.8924 L 11.5237 12.8994 L 11.5033 12.8994 L 11.4896 12.9064 L 11.3401 12.1444 L 11.3604 12.1375 L 11.3876 12.1375 L 11.4149 12.1305 L 11.4489 12.1235 L 11.4761 12.1165 L 11.5101 12.1165 L 11.5372 12.1095 L 11.5713 12.1025 L 11.5985 12.1025 L 11.6257 12.0955 L 11.6597 12.0885 L 11.6869 12.0885 L 11.7141 12.0885 L 11.7482 12.0815 L 11.7822 12.0815 L 11.8093 12.0746 L 11.8365 12.0746 L 11.8706 12.0746 L 11.8978 12.0675 L 11.9318 12.0675 L 11.959 12.0675 L 11.9862 12.0675 L 12.0203 12.0675 L 12.0475 12.0605 L 12.0814 12.0605 L 12.1086 12.0605 L 12.1359 12.0605 L 12.1698 12.0675 L 12.2039 12.0675 L 12.2311 12.0675 L 12.2651 12.0675 L 12.2991 12.0746 L 12.3263 12.0746 L 12.3604 12.0746 L 12.3943 12.0815 L 12.4283 12.0815 L 12.4556 12.0885 L 12.4896 12.0955 L 12.5236 12.1025 L 12.5575 12.1025 L 12.5848 12.1095 L 12.6188 12.1165 L 12.6528 12.1235 L 12.6868 12.1305 L 12.7141 12.1375 L 12.748 12.1444 L 12.7821 12.1514 L 12.816 12.1584 L 12.8433 12.1724 L 12.8773 12.1794 L 12.9114 12.1864 L 12.9453 12.2004 L 12.9794 12.2074 L 13.0065 12.2213 L 13.0201 12.2213 ZM 10.5577 12.3681 L 10.8163 13.1021 C 10.3538 13.2629 9.9183 13.4936 9.4899 13.7243 L 9.1361 13.0462 C 9.5919 12.7875 10.068 12.5499 10.5577 12.3681 ZM 7.9552 0 L 7.9595 13.7313 L 8.0138 13.6963 L 8.1227 13.6334 L 8.2247 13.5705 L 8.2791 13.5355 L 8.3335 13.5076 L 8.3607 13.4866 L 8.3879 13.4726 L 8.415 13.4586 L 8.4423 13.4446 L 8.4695 13.4307 L 8.8436 14.1017 L 8.8232 14.1088 L 8.796 14.1297 L 8.7688 14.1437 L 8.7416 14.1577 L 8.7145 14.1786 L 8.66 14.2066 L 8.6055 14.2415 L 8.4967 14.3044 L 8.3879 14.3673 L 8.3402 14.4023 L 8.2859 14.4303 L 8.2314 14.4652 L 8.177 14.4932 L 8.1499 14.5071 L 8.1227 14.5282 L 8.0955 14.5421 L 8.0751 14.5561 L 8.0477 14.5771 L 8.0206 14.5911 L 7.9934 14.605 L 7.9662 14.619 L 7.9552 14.6255 L 7.9552 17.5636 L 15.0448 21 L 15.0448 13.4457 L 14.7207 13.9759 L 14.707 13.9689 L 14.6731 13.948 L 14.639 13.92 L 14.6051 13.899 L 14.571 13.8781 L 14.537 13.8571 L 14.5031 13.8361 L 14.469 13.8151 L 14.4349 13.7942 L 14.401 13.7732 L 14.3669 13.7522 L 14.3397 13.7313 L 14.3058 13.7103 L 14.2717 13.6893 L 14.2378 13.6753 L 14.2037 13.6544 L 14.1697 13.6334 L 14.1425 13.6124 L 14.1085 13.5915 L 14.0745 13.5775 L 14.0405 13.5565 L 14.0065 13.5355 L 13.9792 13.5215 L 13.9452 13.5006 L 13.9113 13.4796 L 13.8839 13.4656 L 13.85 13.4446 L 13.8159 13.4307 L 13.7888 13.4097 L 13.7548 13.3957 L 13.7207 13.3748 L 13.6935 13.3608 L 13.6595 13.3398 L 13.6323 13.3258 L 13.5984 13.3119 L 13.571 13.2979 L 13.5371 13.2769 L 13.5099 13.2629 L 13.476 13.2489 L 13.4486 13.235 L 13.7683 12.5289 L 13.7683 12.5359 L 13.8024 12.5499 L 13.8364 12.5709 L 13.8704 12.5848 L 13.9044 12.5988 L 13.9385 12.6198 L 13.9724 12.6338 L 14.0065 12.6548 L 14.0405 12.6687 L 14.0745 12.6897 L 14.1085 12.7107 L 14.1425 12.7246 L 14.1765 12.7456 L 14.2104 12.7666 L 14.2445 12.7875 L 14.2786 12.8015 L 14.3125 12.8225 L 14.3466 12.8435 L 14.3805 12.8644 L 14.4146 12.8854 L 14.4485 12.8994 L 14.4825 12.9204 L 14.5166 12.9413 L 14.5505 12.9623 L 14.5846 12.9833 L 14.6185 13.0043 L 14.6526 13.0252 L 14.6934 13.0462 L 14.7275 13.0672 L 14.7615 13.0881 L 14.7955 13.1161 L 14.8295 13.1371 L 14.8635 13.1581 L 14.8975 13.179 L 14.9315 13.2 L 14.9656 13.221 L 14.9996 13.2419 L 15.0336 13.2699 L 15.0448 13.2758 L 15.0448 3.0545 L 7.9552 0 Z" fill="#efc140"/>		</g>	</g></svg>