<?xml version="1.0" standalone="no"?><!-- Generator: Adobe Fireworks CS6, Export SVG Extension by Aaron Beall (http://fireworks.abeall.com) . Version: 0.6.1  --><!DOCTYPE svg PUBLIC "-//W3C//DTD SVG 1.1//EN" "http://www.w3.org/Graphics/SVG/1.1/DTD/svg11.dtd"><svg id="Untitled-Page%201" viewBox="0 0 24 24" style="background-color:#ffffff00" version="1.1"	xmlns="http://www.w3.org/2000/svg" xmlns:xlink="http://www.w3.org/1999/xlink" xml:space="preserve"	x="0px" y="0px" width="24px" height="24px">	<defs>		<filter id="filter1" x="-100%" y="-100%" width="300%" height="300%">			<!-- Drop Shadow -->			<feOffset result="out" in="SourceGraphic" dx="1.4142" dy="1.4142"/>			<feColorMatrix result="out" in="out" type="matrix" values="0 0 0 0 0  0 0 0 0 0  0 0 0 0 0  0 0 0 1 0"/>			<feGaussianBlur result="out" in="out" stdDeviation="1"/>			<feBlend in="SourceGraphic" in2="out" mode="normal" result="Drop_Shadow1"/>		</filter>		<linearGradient id="gradient1" x1="52.5%" y1="40.909%" x2="52.5%" y2="100.3883%">			<stop stop-color="#43c3ff" stop-opacity="1" offset="0%"/>			<stop stop-color="#0d6997" stop-opacity="1" offset="100%"/>		</linearGradient>		<filter id="filter2" x="-100%" y="-100%" width="300%" height="300%">			<!-- Drop Shadow -->			<feOffset result="out" in="SourceGraphic" dx="1.4142" dy="1.4142"/>			<feColorMatrix result="out" in="out" type="matrix" values="0 0 0 0 0  0 0 0 0 0  0 0 0 0 0  0 0 0 1 0"/>			<feGaussianBlur result="out" in="out" stdDeviation="1"/>			<feBlend in="SourceGraphic" in2="out" mode="normal" result="Drop_Shadow2"/>		</filter>		<linearGradient id="gradient2" x1="52.3809%" y1="-45.8333%" x2="52.3809%" y2="162.5%">			<stop stop-color="#fbde09" stop-opacity="1" offset="0%"/>			<stop stop-color="#d93600" stop-opacity="1" offset="100%"/>		</linearGradient>	</defs>	<g id="Layer%201">		<g>			<path filter="url(#filter1)" d="M 12.3111 22.0057 C 18.0151 21.5461 22.5 16.8033 22.5 11.0208 C 22.5 4.9341 17.5311 0 11.4015 0 C 9.6555 0 8.0044 0.3998 6.5348 1.1131 L 6.9621 1.1021 C 11.2528 1.1021 14.7311 4.556 14.7311 8.8167 C 14.7311 10.7834 13.9905 12.5788 12.7704 13.9413 C 13.6389 14.9736 14.1593 16.292 14.1593 17.7292 C 14.1593 19.404 13.4515 20.9188 12.3111 22.0057 ZM 0.5 13.101 C 0.7521 14.4117 1.238 15.6406 1.9131 16.7421 C 2.012 16.1625 2.1962 15.6116 2.4534 15.101 C 1.6868 14.5577 1.0242 13.879 0.5 13.101 Z" fill="url(#gradient1)"/>			<path filter="url(#filter2)" d="M 9.0054 14.9055 C 9.2827 15.1276 9.4629 15.4316 9.5483 15.8175 L 8.1069 16.0309 C 8.0619 15.8659 8.0204 15.7517 7.9836 15.6872 C 7.9469 15.6239 7.8864 15.5594 7.8035 15.4937 L 7.8035 16.5893 C 8.5099 16.7952 8.9829 17.0099 9.2235 17.2345 C 9.5412 17.5372 9.7 17.9219 9.7 18.386 C 9.7 18.6589 9.6431 18.9095 9.5293 19.1366 C 9.4155 19.3649 9.2709 19.5548 9.0955 19.7074 C 8.9188 19.86 8.7316 19.9705 8.5324 20.0387 C 8.3333 20.1069 8.0903 20.1479 7.8035 20.1603 L 7.8035 20.875 L 7.2724 20.875 L 7.2724 20.1603 C 6.9228 20.1293 6.6395 20.0735 6.4213 19.9915 C 6.2032 19.9097 6.0159 19.7968 5.8583 19.6528 C 5.6994 19.5089 5.5773 19.3525 5.492 19.1863 C 5.4067 19.02 5.3427 18.8177 5.3 18.5808 L 6.7414 18.4132 C 6.7841 18.6391 6.841 18.8029 6.9144 18.9034 C 6.9867 19.0039 7.1065 19.0932 7.2724 19.1702 L 7.2724 17.83 C 6.7983 17.6886 6.4628 17.567 6.2637 17.464 C 6.0645 17.361 5.8915 17.196 5.7457 16.9689 C 5.5999 16.7432 5.5276 16.4664 5.5276 16.1401 C 5.5276 15.6934 5.6734 15.3212 5.9661 15.0209 C 6.2578 14.7206 6.6939 14.5544 7.2724 14.522 L 7.2724 14.1251 L 7.8035 14.1251 L 7.8035 14.522 C 8.3274 14.5568 8.728 14.6846 9.0054 14.9055 ZM 3 17.5 C 3 19.9853 5.0147 22 7.5 22 C 9.9853 22 12 19.9853 12 17.5 C 12 15.0147 9.9853 13 7.5 13 C 5.0147 13 3 15.0147 3 17.5 Z" fill="url(#gradient2)"/>		</g>	</g></svg>