<?xml version="1.0" standalone="no"?><!-- Generator: Adobe Fireworks CS6, Export SVG Extension by Aaron Beall (http://fireworks.abeall.com) . Version: 0.6.1  --><!DOCTYPE svg PUBLIC "-//W3C//DTD SVG 1.1//EN" "http://www.w3.org/Graphics/SVG/1.1/DTD/svg11.dtd"><svg id="Untitled-Page%201" viewBox="0 0 24 26" style="background-color:#ffffff00" version="1.1"	xmlns="http://www.w3.org/2000/svg" xmlns:xlink="http://www.w3.org/1999/xlink" xml:space="preserve"	x="0px" y="0px" width="24px" height="26px">	<defs>		<filter id="filter1" x="-100%" y="-100%" width="300%" height="300%">			<!-- Drop Shadow -->			<feOffset result="out" in="SourceGraphic" dx="1.4142" dy="1.4142"/>			<feColorMatrix result="out" in="out" type="matrix" values="0 0 0 0 0  0 0 0 0 0  0 0 0 0 0  0 0 0 1 0"/>			<feGaussianBlur result="out" in="out" stdDeviation="1"/>			<feBlend in="SourceGraphic" in2="out" mode="normal" result="Drop_Shadow1"/>		</filter>		<linearGradient id="gradient1" x1="52.5%" y1="40.9091%" x2="52.5%" y2="100.3883%">			<stop stop-color="#43c3ff" stop-opacity="1" offset="0%"/>			<stop stop-color="#0d6997" stop-opacity="1" offset="100%"/>		</linearGradient>		<filter id="filter2" x="-100%" y="-100%" width="300%" height="300%">			<!-- Drop Shadow -->			<feOffset result="out" in="SourceGraphic" dx="1.4142" dy="1.4142"/>			<feColorMatrix result="out" in="out" type="matrix" values="0 0 0 0 0  0 0 0 0 0  0 0 0 0 0  0 0 0 1 0"/>			<feGaussianBlur result="out" in="out" stdDeviation="1"/>			<feBlend in="SourceGraphic" in2="out" mode="normal" result="Drop_Shadow2"/>		</filter>		<linearGradient id="gradient2" x1="52.3809%" y1="-45.8333%" x2="52.3809%" y2="162.5%">			<stop stop-color="#fbde09" stop-opacity="1" offset="0%"/>			<stop stop-color="#d93600" stop-opacity="1" offset="100%"/>		</linearGradient>	</defs>	<g id="Layer%201">		<g>			<path filter="url(#filter1)" d="M 11.2843 10.1053 L 8.696 7.5789 L 14.304 7.5789 L 11.2843 10.1053 ZM 1.3627 0 C 0.8862 0 0.5 0.377 0.5 0.8421 L 0.5 1.2632 C 0.5 1.7283 0.8862 2.1053 1.3627 2.1053 L 3.0353 2.1058 C 3.0193 2.6174 3.0208 3.3393 3.0883 4.2105 C 4.8499 8.7003 9.1609 9.4135 10.4216 11.7895 C 10.4207 11.8884 10.4064 11.9863 10.3788 12.0826 C 11.3486 11.0892 12.6481 10.373 14.1201 10.0813 C 15.9426 8.7283 18.547 7.4554 19.8202 4.2105 C 19.8876 3.3393 19.8893 2.6174 19.8733 2.1058 L 21.6373 2.1053 C 22.1138 2.1053 22.5 1.7283 22.5 1.2632 L 22.5 0.8421 C 22.5 0.377 22.1138 0 21.6373 0 L 1.3627 0 ZM 1.3627 21.8947 C 0.8862 21.8947 0.5 22.2717 0.5 22.7368 L 0.5 23.1579 C 0.5 23.623 0.8862 24 1.3627 24 L 21.6373 24 C 22.1138 24 22.5 23.623 22.5 23.1579 L 22.5 22.7368 C 22.5 22.2717 22.1138 21.8947 21.6373 21.8947 L 19.905 21.8942 L 19.9103 21.4865 C 19.7053 21.6326 19.4911 21.7692 19.2689 21.8942 C 18.5421 22.3025 17.7277 22.5932 16.8582 22.7368 C 16.4525 22.8038 16.035 22.8387 15.6084 22.8387 C 15.182 22.8387 14.7642 22.8036 14.3586 22.7368 C 13.4889 22.5933 12.675 22.3028 11.9479 21.8942 C 11.516 21.6513 11.1151 21.3666 10.7512 21.0464 L 6.5392 21.0526 C 7.8251 19.8493 8.5325 19.1656 9.0773 18.7651 C 8.7594 18.0292 8.5844 17.227 8.5844 16.3871 C 8.5844 15.2504 8.905 14.1829 9.467 13.2555 C 7.717 14.7462 4.0849 16.483 3.0962 20.397 C 2.9993 20.9646 2.9863 21.4872 3.0022 21.8942 L 1.3627 21.8947 Z" fill="url(#gradient1)"/>			<path filter="url(#filter2)" d="M 17.0054 13.9055 C 17.2828 14.1276 17.4629 14.4316 17.5483 14.8175 L 16.1069 15.0309 C 16.0619 14.8658 16.0204 14.7517 15.9836 14.6872 C 15.9469 14.6239 15.8864 14.5594 15.8035 14.4936 L 15.8035 15.5892 C 16.5099 15.7952 16.9829 16.0099 17.2235 16.2344 C 17.5412 16.5372 17.7 16.9219 17.7 17.3859 C 17.7 17.6589 17.6431 17.9095 17.5293 18.1367 C 17.4155 18.3649 17.2709 18.5547 17.0955 18.7074 C 16.9189 18.86 16.7316 18.9705 16.5325 19.0387 C 16.3333 19.1069 16.0903 19.1479 15.8035 19.1603 L 15.8035 19.875 L 15.2724 19.875 L 15.2724 19.1603 C 14.9227 19.1293 14.6395 19.0734 14.4213 18.9916 C 14.2032 18.9097 14.0159 18.7968 13.8583 18.6528 C 13.6995 18.5089 13.5774 18.3525 13.492 18.1862 C 13.4067 18.02 13.3427 17.8177 13.3 17.5807 L 14.7414 17.4133 C 14.7841 17.639 14.841 17.8029 14.9144 17.9034 C 14.9868 18.0038 15.1065 18.0932 15.2724 18.1701 L 15.2724 16.8301 C 14.7983 16.6886 14.4628 16.567 14.2637 16.464 C 14.0645 16.361 13.8915 16.196 13.7457 15.9689 C 13.5999 15.7432 13.5276 15.4664 13.5276 15.1401 C 13.5276 14.6934 13.6734 14.3212 13.9662 14.0209 C 14.2578 13.7206 14.694 13.5543 15.2724 13.5221 L 15.2724 13.125 L 15.8035 13.125 L 15.8035 13.5221 C 16.3274 13.5568 16.728 13.6846 17.0054 13.9055 ZM 11 16.5 C 11 18.9854 13.0147 21 15.5 21 C 17.9853 21 20 18.9854 20 16.5 C 20 14.0147 17.9853 12 15.5 12 C 13.0147 12 11 14.0147 11 16.5 Z" fill="url(#gradient2)"/>		</g>	</g></svg>