<?xml version="1.0" standalone="no"?><!-- Generator: Adobe Fireworks CS6, Export SVG Extension by Aaron Beall (http://fireworks.abeall.com) . Version: 0.6.1  --><!DOCTYPE svg PUBLIC "-//W3C//DTD SVG 1.1//EN" "http://www.w3.org/Graphics/SVG/1.1/DTD/svg11.dtd"><svg id="Untitled-Page%201" viewBox="0 0 25 29" style="background-color:#ffffff00" version="1.1"	xmlns="http://www.w3.org/2000/svg" xmlns:xlink="http://www.w3.org/1999/xlink" xml:space="preserve"	x="0px" y="0px" width="25px" height="29px">	<defs>		<filter id="filter1" x="-100%" y="-100%" width="300%" height="300%">			<!-- Drop Shadow -->			<feOffset result="out" in="SourceGraphic" dx="1.4142" dy="1.4142"/>			<feColorMatrix result="out" in="out" type="matrix" values="0 0 0 0 0  0 0 0 0 0  0 0 0 0 0  0 0 0 1 0"/>			<feGaussianBlur result="out" in="out" stdDeviation="1"/>			<feBlend in="SourceGraphic" in2="out" mode="normal" result="Drop_Shadow1"/>		</filter>		<linearGradient id="gradient1" x1="52.5%" y1="40.9091%" x2="52.5%" y2="100.3885%">			<stop stop-color="#43c3ff" stop-opacity="1" offset="0%"/>			<stop stop-color="#0d6997" stop-opacity="1" offset="100%"/>		</linearGradient>		<filter id="filter2" x="-100%" y="-100%" width="300%" height="300%">			<!-- Drop Shadow -->			<feOffset result="out" in="SourceGraphic" dx="1.4142" dy="1.4142"/>			<feColorMatrix result="out" in="out" type="matrix" values="0 0 0 0 0  0 0 0 0 0  0 0 0 0 0  0 0 0 1 0"/>			<feGaussianBlur result="out" in="out" stdDeviation="1"/>			<feBlend in="SourceGraphic" in2="out" mode="normal" result="Drop_Shadow2"/>		</filter>		<linearGradient id="gradient2" x1="52.381%" y1="-45.8331%" x2="52.381%" y2="162.5%">			<stop stop-color="#fbde09" stop-opacity="1" offset="0%"/>			<stop stop-color="#d93600" stop-opacity="1" offset="100%"/>		</linearGradient>	</defs>	<g id="Layer%201">		<g>			<path filter="url(#filter1)" d="M 18.3609 18.1149 C 18.3978 17.8679 18.4298 17.6103 18.459 17.3395 L 18.3802 14.0985 L 18.4994 14.0951 C 19.6366 14.0951 20.5584 14.9951 20.5584 16.1054 C 20.5584 17.2156 19.6366 18.1157 18.4994 18.1157 L 18.3609 18.1149 ZM 2.1724 9.5001 L 2.0811 15.4968 C 3.0919 14.9254 4.2689 14.5977 5.5246 14.5977 C 9.2955 14.5977 12.3524 17.5511 12.3524 21.1946 C 12.3524 21.8846 12.243 22.5492 12.0397 23.1743 C 13.0236 23.0974 14.1508 22.9796 15.4324 22.8039 C 16.2899 22.1675 16.892 21.5777 17.3234 20.968 C 17.7927 20.9811 18.3453 20.9876 18.4994 20.9876 C 21.2612 20.9876 23.5 18.8018 23.5 16.1054 C 23.5 13.409 21.2612 11.2231 18.4994 11.2231 L 18.31 11.2267 L 18.2682 9.5001 L 2.1724 9.5001 ZM 11.6643 7.186 C 11.6643 7.186 9.8945 4.8682 12.7705 4.206 C 18.8691 2.9249 12.9794 -0.0153 12.9716 0.0001 L 12.9917 0.012 C 14.4077 0.7728 15.3527 1.3111 10.1423 3.338 C 11.3369 2.3411 8.6417 0.9966 8.6373 1.0054 C 9.6525 1.5512 10.3389 1.9432 6.465 3.4311 C 4.4346 4.2108 7.7144 6.0823 7.7144 6.0823 C 7.7144 6.0823 6.465 4.4448 8.4953 3.9769 C 8.8018 3.9125 9.0653 3.8424 9.2906 3.7673 C 7.8196 4.9941 11.6643 7.186 11.6643 7.186 Z" fill="url(#gradient1)"/>			<path filter="url(#filter2)" d="M 6.6727 19.1172 C 6.9809 19.364 7.181 19.7017 7.2759 20.1306 L 5.6743 20.3677 C 5.6243 20.1843 5.5782 20.0574 5.5373 19.9858 C 5.4965 19.9155 5.4294 19.8438 5.3372 19.7707 L 5.3372 20.988 C 6.1221 21.2169 6.6476 21.4554 6.915 21.705 C 7.2679 22.0413 7.4445 22.4688 7.4445 22.9844 C 7.4445 23.2877 7.3812 23.5662 7.2548 23.8185 C 7.1284 24.0722 6.9677 24.2831 6.7728 24.4526 C 6.5765 24.6223 6.3684 24.7449 6.1472 24.8207 C 5.9259 24.8966 5.6559 24.9421 5.3372 24.9559 L 5.3372 25.75 L 4.7471 25.75 L 4.7471 24.9559 C 4.3586 24.9214 4.0438 24.8594 3.8015 24.7684 C 3.5591 24.6774 3.351 24.5519 3.1759 24.392 C 2.9994 24.2321 2.8637 24.0583 2.7689 23.8736 C 2.6741 23.6889 2.603 23.4642 2.5555 23.2009 L 4.1571 23.0147 C 4.2045 23.2656 4.2677 23.4476 4.3494 23.5593 C 4.4297 23.671 4.5627 23.7702 4.7471 23.8557 L 4.7471 22.3667 C 4.2203 22.2095 3.8475 22.0745 3.6263 21.96 C 3.405 21.8456 3.2127 21.6622 3.0507 21.4099 C 2.8888 21.159 2.8084 20.8516 2.8084 20.489 C 2.8084 19.9926 2.9704 19.579 3.2957 19.2454 C 3.6197 18.9117 4.1044 18.727 4.7471 18.6912 L 4.7471 18.25 L 5.3372 18.25 L 5.3372 18.6912 C 5.9193 18.7298 6.3644 18.8718 6.6727 19.1172 ZM 0 22 C 0 24.7615 2.2385 27 5 27 C 7.7615 27 10 24.7615 10 22 C 10 19.2385 7.7615 17 5 17 C 2.2385 17 0 19.2385 0 22 Z" fill="url(#gradient2)"/>		</g>	</g></svg>