<?xml version="1.0" standalone="no"?><!-- Generator: Adobe Fireworks CS6, Export SVG Extension by Aaron Beall (http://fireworks.abeall.com) . Version: 0.6.1  --><!DOCTYPE svg PUBLIC "-//W3C//DTD SVG 1.1//EN" "http://www.w3.org/Graphics/SVG/1.1/DTD/svg11.dtd"><svg id="Untitled-Page%201" viewBox="0 0 32 22" style="background-color:#ffffff00" version="1.1"	xmlns="http://www.w3.org/2000/svg" xmlns:xlink="http://www.w3.org/1999/xlink" xml:space="preserve"	x="0px" y="0px" width="32px" height="22px">	<defs>		<filter id="filter1" x="-100%" y="-100%" width="300%" height="300%">			<!-- Drop Shadow -->			<feOffset result="out" in="SourceGraphic" dx="1.4142" dy="1.4142"/>			<feColorMatrix result="out" in="out" type="matrix" values="0 0 0 0 0  0 0 0 0 0  0 0 0 0 0  0 0 0 1 0"/>			<feGaussianBlur result="out" in="out" stdDeviation="1"/>			<feBlend in="SourceGraphic" in2="out" mode="normal" result="Drop_Shadow1"/>		</filter>		<linearGradient id="gradient1" x1="60.6823%" y1="-34.7675%" x2="60.6823%" y2="191.3866%">			<stop stop-color="#ffff00" stop-opacity="1" offset="0%"/>			<stop stop-color="#d93600" stop-opacity="1" offset="100%"/>		</linearGradient>		<filter id="filter2" x="-100%" y="-100%" width="300%" height="300%">			<!-- Drop Shadow -->			<feOffset result="out" in="SourceGraphic" dx="1.4142" dy="1.4142"/>			<feColorMatrix result="out" in="out" type="matrix" values="0 0 0 0 0  0 0 0 0 0  0 0 0 0 0  0 0 0 1 0"/>			<feGaussianBlur result="out" in="out" stdDeviation="1"/>			<feBlend in="SourceGraphic" in2="out" mode="normal" result="Drop_Shadow2"/>		</filter>		<linearGradient id="gradient2" x1="113.936%" y1="45%" x2="46.8148%" y2="44.978%">			<stop stop-color="#d93600" stop-opacity="1" offset="0%"/>			<stop stop-color="#ec6200" stop-opacity="1" offset="100%"/>		</linearGradient>	</defs>	<g id="Layer%201">		<g>			<path filter="url(#filter1)" d="M 19.4749 12.2727 L 19.5872 12.2727 L 19.699 12.2727 C 20.1659 12.2748 21.2917 12.279 22.3688 12.269 C 22.7738 12.3345 22.8719 12.6018 22.837 13.6326 L 22.7524 18.6364 C 22.7524 18.6364 22.7738 19.5569 23.6888 19.5454 C 23.6888 19.5454 25.1233 19.5439 26.271 19.5569 C 26.9731 19.3341 26.9664 18.6364 26.9664 18.6364 L 26.9824 10.1398 C 26.9824 10.1398 26.9841 9.5266 27.6077 9.5557 L 29.3076 9.5454 C 29.7546 9.6081 30.3217 9.1886 29.7758 8.6364 L 20.4113 0 L 19.699 0 L 19.4749 0 L 18.7626 0 L 9.3981 8.6364 C 8.8522 9.1886 9.4193 9.6081 9.8663 9.5454 L 11.5662 9.5557 C 12.1898 9.5266 12.1915 10.1398 12.1915 10.1398 L 12.2074 18.6364 C 12.2074 18.6364 12.2008 19.3341 12.9029 19.5569 C 14.0506 19.5439 15.485 19.5454 15.485 19.5454 C 16.4 19.5569 16.4214 18.6364 16.4214 18.6364 L 16.3369 13.6326 C 16.3019 12.6018 16.4 12.3345 16.8051 12.269 C 17.8799 12.279 19.0062 12.2748 19.4749 12.2727 Z" fill="url(#gradient1)"/>			<path filter="url(#filter2)" d="M 0 10.9091 L 8.4281 20 L 8.4281 15.4546 L 10.5322 15.4546 L 10.4283 11.5337 C 10.4283 11.5337 10.4264 10.821 9.7113 10.8549 L 7.3076 10.9173 C 6.795 10.9901 6.2531 10.4283 6.8789 9.7865 L 9.0451 6.8954 C 8.0517 6.857 8.8963 6.8182 8.8963 6.8182 L 8.8963 1.8182 L 0 10.9091 Z" fill="url(#gradient2)"/>		</g>	</g></svg>