<?xml version="1.0" standalone="no"?><!-- Generator: Adobe Fireworks CS6, Export SVG Extension by Aaron Beall (http://fireworks.abeall.com) . Version: 0.6.1  --><!DOCTYPE svg PUBLIC "-//W3C//DTD SVG 1.1//EN" "http://www.w3.org/Graphics/SVG/1.1/DTD/svg11.dtd"><svg id="Untitled-Page%201" viewBox="0 0 27 27" style="background-color:#ffffff00" version="1.1"	xmlns="http://www.w3.org/2000/svg" xmlns:xlink="http://www.w3.org/1999/xlink" xml:space="preserve"	x="0px" y="0px" width="27px" height="27px">	<defs>		<linearGradient id="gradient1" x1="50%" y1="0%" x2="50%" y2="100%">			<stop stop-color="#a1a1a1" stop-opacity="1" offset="0%"/>			<stop stop-color="#bcbcbe" stop-opacity="1" offset="22.2222%"/>			<stop stop-color="#bcbcbe" stop-opacity="1" offset="100%"/>		</linearGradient>	</defs>	<g id="Layer%201">		<g>			<rect x="0" y="0" width="27" height="27" fill="url(#gradient1)"/>			<path d="M 12 4 C 7.5817 4 4 7.5817 4 12 C 4 16.4183 7.5817 20 12 20 C 13.4324 20 14.777 19.6244 15.9399 18.965 L 20 23 L 23 20 L 18.9451 15.97 C 19.6152 14.7998 20 13.445 20 12 C 20 7.5817 16.4183 4 12 4 ZM 12 6.5939 C 14.9857 6.5939 17.406 9.0143 17.406 12 C 17.406 14.9857 14.9857 17.4061 12 17.4061 C 9.0143 17.4061 6.594 14.9857 6.594 12 C 6.594 9.0143 9.0143 6.5939 12 6.5939 Z" fill="#444444"/>		</g>	</g></svg>