<?xml version="1.0" standalone="no"?><!-- Generator: Adobe Fireworks CS6, Export SVG Extension by Aaron Beall (http://fireworks.abeall.com) . Version: 0.6.1  --><!DOCTYPE svg PUBLIC "-//W3C//DTD SVG 1.1//EN" "http://www.w3.org/Graphics/SVG/1.1/DTD/svg11.dtd"><svg id="Untitled-Page%201" viewBox="0 0 23 23" style="background-color:#ffffff00" version="1.1"	xmlns="http://www.w3.org/2000/svg" xmlns:xlink="http://www.w3.org/1999/xlink" xml:space="preserve"	x="0px" y="0px" width="23px" height="23px">	<defs>		<filter id="filter1" x="-100%" y="-100%" width="300%" height="300%">			<!-- Drop Shadow -->			<feOffset result="out" in="SourceGraphic" dx="1.4142" dy="1.4142"/>			<feColorMatrix result="out" in="out" type="matrix" values="0 0 0 0 0  0 0 0 0 0  0 0 0 0 0  0 0 0 1 0"/>			<feGaussianBlur result="out" in="out" stdDeviation="1"/>			<feBlend in="SourceGraphic" in2="out" mode="normal" result="Drop_Shadow1"/>		</filter>		<linearGradient id="gradient1" x1="57.1429%" y1="0%" x2="57.1429%" y2="100%">			<stop stop-color="#53b161" stop-opacity="1" offset="0%"/>			<stop stop-color="#336c40" stop-opacity="1" offset="100%"/>		</linearGradient>	</defs>	<g id="Layer%201">		<path filter="url(#filter1)" d="M 7.0432 6.25 C 9.36 6.25 10.7161 8.029 10.7161 10.4102 C 10.7161 13.2395 9.1079 14.75 6.9229 14.75 C 4.688 14.75 3.2839 13.0218 3.2839 10.5638 C 3.2839 7.9778 4.832 6.25 7.0432 6.25 ZM 11.6441 14.7188 L 11.6441 6.2813 L 13.4879 6.2813 L 13.4879 10.0113 L 13.5239 10.0113 C 13.7039 9.6858 13.8959 9.3853 14.0759 9.0848 L 15.9121 6.2813 L 18.1563 6.2813 L 15.48 9.8736 L 18.3003 14.7188 L 16.1641 14.7188 L 14.184 11.0755 L 13.4879 11.9644 L 13.4879 14.7188 L 11.6441 14.7188 ZM 3.125 0 C 1.6752 0 0.5 1.1752 0.5 2.625 L 0.5 18.375 C 0.5 19.8248 1.6752 21 3.125 21 L 18.875 21 C 20.3248 21 21.5 19.8248 21.5 18.375 L 21.5 2.625 C 21.5 1.1752 20.3248 0 18.875 0 L 3.125 0 ZM 6.9994 7.5941 C 5.8726 7.5941 5.2161 8.8483 5.2161 10.5254 C 5.2161 12.2153 5.8944 13.4059 7.0104 13.4059 C 8.1372 13.4059 8.7839 12.1513 8.7839 10.4742 C 8.7839 8.9251 8.1482 7.5941 6.9994 7.5941 Z" fill="url(#gradient1)"/>	</g></svg>