<?xml version="1.0" standalone="no"?><!-- Generator: Adobe Fireworks CS6, Export SVG Extension by Aaron Beall (http://fireworks.abeall.com) . Version: 0.6.1  --><!DOCTYPE svg PUBLIC "-//W3C//DTD SVG 1.1//EN" "http://www.w3.org/Graphics/SVG/1.1/DTD/svg11.dtd"><svg id="Untitled-Page%201" viewBox="0 0 23 23" style="background-color:#ffffff00" version="1.1"	xmlns="http://www.w3.org/2000/svg" xmlns:xlink="http://www.w3.org/1999/xlink" xml:space="preserve"	x="0px" y="0px" width="23px" height="23px">	<defs>		<filter id="filter1" x="-100%" y="-100%" width="300%" height="300%">			<!-- Drop Shadow -->			<feOffset result="out" in="SourceGraphic" dx="1.4142" dy="1.4142"/>			<feColorMatrix result="out" in="out" type="matrix" values="0 0 0 0 0  0 0 0 0 0  0 0 0 0 0  0 0 0 1 0"/>			<feGaussianBlur result="out" in="out" stdDeviation="1"/>			<feBlend in="SourceGraphic" in2="out" mode="normal" result="Drop_Shadow1"/>		</filter>		<linearGradient id="gradient1" x1="57.1429%" y1="0%" x2="57.1429%" y2="100%">			<stop stop-color="#bbbbbb" stop-opacity="1" offset="0%"/>			<stop stop-color="#4b4b4b" stop-opacity="1" offset="100%"/>		</linearGradient>	</defs>	<g id="Layer%201">		<path filter="url(#filter1)" d="M 10.887 13.1783 L 11.0003 13.1783 L 11.113 13.1783 C 11.5837 13.1805 12.7191 13.1851 13.8051 13.1742 C 14.2135 13.2446 14.3124 13.5317 14.2772 14.6385 L 14.1919 20.0115 C 14.1919 20.0115 14.2135 21 15.1362 20.9877 C 15.1362 20.9877 16.5825 20.986 17.7399 21 C 18.4478 20.7607 18.4412 20.0115 18.4412 20.0115 L 18.4572 10.888 C 18.4572 10.888 18.4589 10.2295 19.0877 10.2607 L 20.8018 10.2498 C 21.2526 10.3171 21.8243 9.8667 21.2739 9.2736 L 11.8312 0 L 11.113 0 L 10.887 0 L 10.1688 0 L 0.7261 9.2736 C 0.1757 9.8667 0.7475 10.3171 1.1982 10.2498 L 2.9122 10.2607 C 3.5411 10.2295 3.5428 10.888 3.5428 10.888 L 3.5588 20.0115 C 3.5588 20.0115 3.5522 20.7607 4.2601 21 C 5.4175 20.986 6.8638 20.9877 6.8638 20.9877 C 7.7865 21 7.8081 20.0115 7.8081 20.0115 L 7.7228 14.6385 C 7.6876 13.5317 7.7865 13.2446 8.1949 13.1742 C 9.2787 13.1851 10.4144 13.1805 10.887 13.1783 Z" fill="url(#gradient1)"/>	</g></svg>