<?xml version="1.0" standalone="no"?><!-- Generator: Adobe Fireworks CS6, Export SVG Extension by Aaron Beall (http://fireworks.abeall.com) . Version: 0.6.1  --><!DOCTYPE svg PUBLIC "-//W3C//DTD SVG 1.1//EN" "http://www.w3.org/Graphics/SVG/1.1/DTD/svg11.dtd"><svg id="Untitled-Page%201" viewBox="0 0 14 16" style="background-color:#ffffff00" version="1.1"	xmlns="http://www.w3.org/2000/svg" xmlns:xlink="http://www.w3.org/1999/xlink" xml:space="preserve"	x="0px" y="0px" width="14px" height="16px">	<defs>		<linearGradient id="gradient1" x1="52.5781%" y1="-2.941%" x2="52.5781%" y2="100%">			<stop stop-color="#16391c" stop-opacity="1" offset="0%"/>			<stop stop-color="#0b150b" stop-opacity="1" offset="100%"/>		</linearGradient>	</defs>	<g id="Layer%201">		<path d="M 9.4839 7.5294 L 9.7097 7.5294 C 9.9591 7.5294 10.1613 7.7401 10.1613 8 L 10.1613 14.1176 C 10.1613 14.3776 9.9591 14.5883 9.7097 14.5883 L 9.4839 14.5883 C 9.2345 14.5883 9.0322 14.3776 9.0322 14.1176 L 9.0322 8 C 9.0322 7.7401 9.2345 7.5294 9.4839 7.5294 ZM 6.7742 7.5294 L 7 7.5294 C 7.2494 7.5294 7.4517 7.7401 7.4517 8 L 7.4517 14.1176 C 7.4517 14.3776 7.2494 14.5883 7 14.5883 L 6.7742 14.5883 C 6.5248 14.5883 6.3225 14.3776 6.3225 14.1176 L 6.3225 8 C 6.3225 7.7401 6.5248 7.5294 6.7742 7.5294 ZM 4.0645 7.5294 L 4.2903 7.5294 C 4.5398 7.5294 4.7419 7.7401 4.7419 8 L 4.7419 14.1176 C 4.7419 14.3776 4.5398 14.5883 4.2903 14.5883 L 4.0645 14.5883 C 3.8152 14.5883 3.6129 14.3776 3.6129 14.1176 L 3.6129 8 C 3.6129 7.7401 3.8152 7.5294 4.0645 7.5294 ZM 1.8065 5.6471 L 1.8065 15.0588 C 1.8065 15.5786 2.2108 16 2.7097 16 L 11.0645 16 C 11.5634 16 11.9678 15.5786 11.9678 15.0588 L 11.9678 5.6471 L 1.8065 5.6471 ZM 9.0322 2.5883 L 4.9678 2.5883 C 4.9678 1.6786 5.6754 1.4117 6.5483 1.4117 L 7.4517 1.4117 C 8.3246 1.4117 9.0322 1.6786 9.0322 2.5883 ZM 0 4.2353 C 0 4.9823 0.4773 5.6136 1.1312 5.8153 C 1.1646 5.327 1.5552 4.9412 2.0322 4.9412 L 11.9678 4.9412 C 12.4448 4.9412 12.8354 5.327 12.8688 5.8153 C 13.5227 5.6136 14 4.9823 14 4.2353 C 14 3.3257 13.2924 2.5883 12.4193 2.5883 L 9.9355 2.5883 L 9.9355 1.6471 C 9.9355 0.7374 9.2278 0 8.3547 0 L 5.4193 0 C 4.5464 0 3.8387 0.7374 3.8387 1.6471 L 3.8387 2.5883 L 1.5807 2.5883 C 0.7076 2.5883 0 3.3257 0 4.2353 Z" fill="url(#gradient1)"/>	</g></svg>