<?xml version="1.0" standalone="no"?><!-- Generator: Adobe Fireworks CS6, Export SVG Extension by Aaron Beall (http://fireworks.abeall.com) . Version: 0.6.1  --><!DOCTYPE svg PUBLIC "-//W3C//DTD SVG 1.1//EN" "http://www.w3.org/Graphics/SVG/1.1/DTD/svg11.dtd"><svg id="Untitled-Page%201" viewBox="0 0 23 25" style="background-color:#ffffff00" version="1.1"	xmlns="http://www.w3.org/2000/svg" xmlns:xlink="http://www.w3.org/1999/xlink" xml:space="preserve"	x="0px" y="0px" width="23px" height="25px">	<defs>		<filter id="filter1" x="-100%" y="-100%" width="300%" height="300%">			<!-- Drop Shadow -->			<feOffset result="out" in="SourceGraphic" dx="1.4142" dy="1.4142"/>			<feColorMatrix result="out" in="out" type="matrix" values="0 0 0 0 0  0 0 0 0 0  0 0 0 0 0  0 0 0 1 0"/>			<feGaussianBlur result="out" in="out" stdDeviation="1"/>			<feBlend in="SourceGraphic" in2="out" mode="normal" result="Drop_Shadow1"/>		</filter>		<linearGradient id="gradient1" x1="60.6823%" y1="-34.7675%" x2="60.6823%" y2="191.3868%">			<stop stop-color="#ffff00" stop-opacity="1" offset="0%"/>			<stop stop-color="#d93600" stop-opacity="1" offset="100%"/>		</linearGradient>		<filter id="filter2" x="-100%" y="-100%" width="300%" height="300%">			<!-- Drop Shadow -->			<feOffset result="out" in="SourceGraphic" dx="1.4142" dy="1.4142"/>			<feColorMatrix result="out" in="out" type="matrix" values="0 0 0 0 0  0 0 0 0 0  0 0 0 0 0  0 0 0 1 0"/>			<feGaussianBlur result="out" in="out" stdDeviation="1"/>			<feBlend in="SourceGraphic" in2="out" mode="normal" result="Drop_Shadow2"/>		</filter>		<linearGradient id="gradient2" x1="113.936%" y1="45%" x2="46.8148%" y2="44.9779%">			<stop stop-color="#d93600" stop-opacity="1" offset="0%"/>			<stop stop-color="#ec6200" stop-opacity="1" offset="100%"/>		</linearGradient>	</defs>	<g id="Layer%201">		<g>			<path filter="url(#filter1)" d="M 13.8134 19.7942 L 13.7667 23.0657 C 13.7667 23.0657 13.788 24 14.7 23.9883 C 14.7 23.9883 16.1296 23.9867 17.2735 24 C 17.9733 23.7738 17.9667 23.0657 17.9667 23.0657 L 17.976 18.1588 C 16.7648 18.9341 15.3768 19.5338 13.8134 19.7942 ZM 10.5 16.6073 L 10.612 16.6073 L 10.7234 16.6073 L 11.6666 16.6073 C 12.3471 16.2392 15.1351 14.1886 15.4 13.8394 C 15.6649 13.4902 16.4648 12.0854 16.3333 11.0715 C 16.2018 10.0576 15.7733 9.509 14.9333 8.3036 C 14.176 7.217 10.1761 6.6376 7.1666 7.0864 C 7.0903 8.1419 7 9.2263 7 9.2263 C 7 9.2263 6.4651 10.8235 6.0667 10.6102 C 5.6682 10.3969 5.1354 10.8235 4.6667 10.6102 C 4.47 10.5207 4.1087 10.1805 3.7567 9.8168 L 0.4568 12.9168 C -0.0873 13.4773 0.478 13.903 0.9235 13.8394 L 2.6177 13.8498 C 3.2393 13.8202 3.2409 14.4427 3.2409 14.4427 L 3.2568 23.0657 C 3.2568 23.0657 3.2502 23.7738 3.95 24 C 5.0938 23.9867 6.5234 23.9883 6.5234 23.9883 C 7.4354 24 7.4568 23.0657 7.4568 23.0657 L 7.3724 17.9875 C 7.3376 16.9413 7.4354 16.67 7.8391 16.6035 C 8.9104 16.6137 10.0329 16.6094 10.5 16.6073 Z" fill="url(#gradient1)"/>			<path filter="url(#filter2)" d="M 5.3635 3.2515 C 5.2148 1.6649 5.3635 0.4492 5.3635 0.4492 C 5.3635 0.4492 5.3557 -0.1761 4.955 0.0488 C 2.5369 2.1252 0 5.0709 0 5.0709 L 4.955 9.2567 C 5.4497 9.8116 5.7722 9.2567 5.7722 9.2567 L 5.3635 6.0539 C 12.1678 4.7027 17.1007 5.9454 18.1812 10.8702 C 18.698 16.2093 8.6326 18.8648 8.6326 18.8648 C 13.3423 19.247 20.0889 17.4642 21 11.1003 C 20.7466 8.8572 18.8389 0.6984 5.3635 3.2515 Z" fill="url(#gradient2)"/>		</g>	</g></svg>