<?xml version="1.0" standalone="no"?><!-- Generator: Adobe Fireworks CS6, Export SVG Extension by Aaron Beall (http://fireworks.abeall.com) . Version: 0.6.1  --><!DOCTYPE svg PUBLIC "-//W3C//DTD SVG 1.1//EN" "http://www.w3.org/Graphics/SVG/1.1/DTD/svg11.dtd"><svg id="Untitled-Page%201" viewBox="0 0 22 25" style="background-color:#ffffff00" version="1.1"	xmlns="http://www.w3.org/2000/svg" xmlns:xlink="http://www.w3.org/1999/xlink" xml:space="preserve"	x="0px" y="0px" width="22px" height="25px">	<defs>		<filter id="filter1" x="-100%" y="-100%" width="300%" height="300%">			<!-- Drop Shadow -->			<feOffset result="out" in="SourceGraphic" dx="1.4142" dy="1.4142"/>			<feColorMatrix result="out" in="out" type="matrix" values="0 0 0 0 0  0 0 0 0 0  0 0 0 0 0  0 0 0 1 0"/>			<feGaussianBlur result="out" in="out" stdDeviation="1"/>			<feBlend in="SourceGraphic" in2="out" mode="normal" result="Drop_Shadow1"/>		</filter>		<linearGradient id="gradient1" x1="52.5%" y1="40.9092%" x2="52.5%" y2="100.3885%">			<stop stop-color="#43c3ff" stop-opacity="1" offset="0%"/>			<stop stop-color="#0d6997" stop-opacity="1" offset="100%"/>		</linearGradient>	</defs>	<g id="Layer%201">		<path filter="url(#filter1)" d="M 5.9902 20.1755 C 8.7057 17.4966 8.5817 17.5057 10.3663 17.3599 C 12.8906 17.3599 15.402 20.1755 15.402 20.1755 C 15.402 20.1755 10.2335 20.1622 5.9902 20.1755 ZM 10.304 9.6842 L 7.951 7.2632 L 13.049 7.2632 L 10.304 9.6842 ZM 1.2843 0 C 0.8511 0 0.5 0.3613 0.5 0.807 L 0.5 1.2105 C 0.5 1.6563 0.8511 2.0175 1.2843 2.0175 L 2.805 2.02 C 2.7905 2.5102 2.7917 3.2003 2.8529 4.0351 C 4.4544 8.3378 8.3735 9.0213 9.5197 11.2982 C 9.5028 13.259 4.0558 14.5576 2.8602 19.5471 C 2.772 20.0912 2.7605 20.5949 2.775 20.985 L 1.2843 20.9825 C 0.8511 20.9825 0.5 21.3438 0.5 21.7895 L 0.5 22.193 C 0.5 22.6387 0.8511 23 1.2843 23 L 19.7157 23 C 20.1489 23 20.5 22.6387 20.5 22.193 L 20.5 21.7895 C 20.5 21.3438 20.1489 20.9825 19.7157 20.9825 L 18.14 20.985 C 18.1545 20.595 18.1447 20.0911 18.0566 19.5471 C 16.8609 14.5576 11.4139 13.259 11.3971 11.2982 C 12.5432 9.0213 16.4623 8.3378 18.0638 4.0351 C 18.1251 3.2001 18.1245 2.5102 18.11 2.02 L 19.7157 2.0175 C 20.1489 2.0175 20.5 1.6563 20.5 1.2105 L 20.5 0.807 C 20.5 0.3613 20.1489 0 19.7157 0 L 1.2843 0 Z" fill="url(#gradient1)"/>	</g></svg>